<mxfile host="app.diagrams.net" modified="2021-08-13T08:33:03.243Z" agent="5.0 (Macintosh; Intel Mac OS X 10_15_7) AppleWebKit/537.36 (KHTML, like Gecko) Chrome/92.0.4515.107 Safari/537.36 Edg/92.0.902.62" etag="20xpYaI7ui_gneI3UKz7" version="14.9.4" type="github">
  <diagram id="Qe_jFw7sQ2z8KY-3_zh3" name="第 1 页">
    <mxGraphModel dx="1053" dy="556" grid="0" gridSize="10" guides="1" tooltips="1" connect="1" arrows="1" fold="1" page="0" pageScale="1" pageWidth="827" pageHeight="1169" math="0" shadow="0">
      <root>
        <mxCell id="0" />
        <mxCell id="1" parent="0" />
        <mxCell id="VyePYwVxATAiOt2KT0fE-15" style="rounded=0;orthogonalLoop=1;jettySize=auto;html=1;exitX=0;exitY=1;exitDx=0;exitDy=0;endArrow=none;endFill=0;" edge="1" parent="1" source="VyePYwVxATAiOt2KT0fE-1" target="VyePYwVxATAiOt2KT0fE-2">
          <mxGeometry relative="1" as="geometry" />
        </mxCell>
        <mxCell id="VyePYwVxATAiOt2KT0fE-28" value="c" style="edgeLabel;html=1;align=center;verticalAlign=middle;resizable=0;points=[];fontSize=15;" vertex="1" connectable="0" parent="VyePYwVxATAiOt2KT0fE-15">
          <mxGeometry x="-0.2101" relative="1" as="geometry">
            <mxPoint x="-11" y="-1" as="offset" />
          </mxGeometry>
        </mxCell>
        <mxCell id="VyePYwVxATAiOt2KT0fE-16" style="edgeStyle=none;rounded=0;orthogonalLoop=1;jettySize=auto;html=1;exitX=1;exitY=1;exitDx=0;exitDy=0;endArrow=none;endFill=0;" edge="1" parent="1" source="VyePYwVxATAiOt2KT0fE-1" target="VyePYwVxATAiOt2KT0fE-3">
          <mxGeometry relative="1" as="geometry" />
        </mxCell>
        <mxCell id="VyePYwVxATAiOt2KT0fE-29" value="r" style="edgeLabel;html=1;align=center;verticalAlign=middle;resizable=0;points=[];fontSize=15;" vertex="1" connectable="0" parent="VyePYwVxATAiOt2KT0fE-16">
          <mxGeometry x="0.0628" y="1" relative="1" as="geometry">
            <mxPoint x="8" y="-5" as="offset" />
          </mxGeometry>
        </mxCell>
        <mxCell id="VyePYwVxATAiOt2KT0fE-1" value="" style="ellipse;whiteSpace=wrap;html=1;aspect=fixed;" vertex="1" parent="1">
          <mxGeometry x="300" y="190" width="30" height="30" as="geometry" />
        </mxCell>
        <mxCell id="VyePYwVxATAiOt2KT0fE-23" style="edgeStyle=none;rounded=0;orthogonalLoop=1;jettySize=auto;html=1;exitX=0.726;exitY=0.9;exitDx=0;exitDy=0;endArrow=none;endFill=0;exitPerimeter=0;" edge="1" parent="1" source="VyePYwVxATAiOt2KT0fE-2" target="VyePYwVxATAiOt2KT0fE-5">
          <mxGeometry relative="1" as="geometry" />
        </mxCell>
        <mxCell id="VyePYwVxATAiOt2KT0fE-35" value="o" style="edgeLabel;html=1;align=center;verticalAlign=middle;resizable=0;points=[];fontSize=15;" vertex="1" connectable="0" parent="VyePYwVxATAiOt2KT0fE-23">
          <mxGeometry x="-0.0561" relative="1" as="geometry">
            <mxPoint x="10" y="-6" as="offset" />
          </mxGeometry>
        </mxCell>
        <mxCell id="VyePYwVxATAiOt2KT0fE-24" style="edgeStyle=none;rounded=0;orthogonalLoop=1;jettySize=auto;html=1;exitX=0;exitY=1;exitDx=0;exitDy=0;entryX=0.5;entryY=0;entryDx=0;entryDy=0;endArrow=none;endFill=0;" edge="1" parent="1" source="VyePYwVxATAiOt2KT0fE-2" target="VyePYwVxATAiOt2KT0fE-4">
          <mxGeometry relative="1" as="geometry" />
        </mxCell>
        <mxCell id="VyePYwVxATAiOt2KT0fE-36" value="a" style="edgeLabel;html=1;align=center;verticalAlign=middle;resizable=0;points=[];fontSize=15;" vertex="1" connectable="0" parent="VyePYwVxATAiOt2KT0fE-24">
          <mxGeometry x="-0.0523" relative="1" as="geometry">
            <mxPoint x="-10" y="-6" as="offset" />
          </mxGeometry>
        </mxCell>
        <mxCell id="VyePYwVxATAiOt2KT0fE-2" value="" style="ellipse;whiteSpace=wrap;html=1;aspect=fixed;" vertex="1" parent="1">
          <mxGeometry x="261" y="253" width="30" height="30" as="geometry" />
        </mxCell>
        <mxCell id="VyePYwVxATAiOt2KT0fE-18" style="edgeStyle=none;rounded=0;orthogonalLoop=1;jettySize=auto;html=1;exitX=0.724;exitY=0.946;exitDx=0;exitDy=0;endArrow=none;endFill=0;exitPerimeter=0;" edge="1" parent="1" source="VyePYwVxATAiOt2KT0fE-3">
          <mxGeometry relative="1" as="geometry">
            <mxPoint x="384" y="325" as="targetPoint" />
          </mxGeometry>
        </mxCell>
        <mxCell id="VyePYwVxATAiOt2KT0fE-31" value="a" style="edgeLabel;html=1;align=center;verticalAlign=middle;resizable=0;points=[];fontSize=15;" vertex="1" connectable="0" parent="VyePYwVxATAiOt2KT0fE-18">
          <mxGeometry x="0.024" y="1" relative="1" as="geometry">
            <mxPoint x="8" y="-7" as="offset" />
          </mxGeometry>
        </mxCell>
        <mxCell id="VyePYwVxATAiOt2KT0fE-3" value="" style="ellipse;whiteSpace=wrap;html=1;aspect=fixed;" vertex="1" parent="1">
          <mxGeometry x="339" y="253" width="30" height="30" as="geometry" />
        </mxCell>
        <mxCell id="VyePYwVxATAiOt2KT0fE-25" style="edgeStyle=none;rounded=0;orthogonalLoop=1;jettySize=auto;html=1;exitX=0;exitY=1;exitDx=0;exitDy=0;entryX=0.5;entryY=0;entryDx=0;entryDy=0;endArrow=none;endFill=0;" edge="1" parent="1" source="VyePYwVxATAiOt2KT0fE-4" target="VyePYwVxATAiOt2KT0fE-12">
          <mxGeometry relative="1" as="geometry" />
        </mxCell>
        <mxCell id="VyePYwVxATAiOt2KT0fE-37" value="b" style="edgeLabel;html=1;align=center;verticalAlign=middle;resizable=0;points=[];fontSize=15;" vertex="1" connectable="0" parent="VyePYwVxATAiOt2KT0fE-25">
          <mxGeometry x="-0.1034" y="-2" relative="1" as="geometry">
            <mxPoint x="-8" y="-9" as="offset" />
          </mxGeometry>
        </mxCell>
        <mxCell id="VyePYwVxATAiOt2KT0fE-26" style="edgeStyle=none;rounded=0;orthogonalLoop=1;jettySize=auto;html=1;exitX=0.5;exitY=1;exitDx=0;exitDy=0;entryX=0.5;entryY=0;entryDx=0;entryDy=0;endArrow=none;endFill=0;" edge="1" parent="1" source="VyePYwVxATAiOt2KT0fE-4" target="VyePYwVxATAiOt2KT0fE-11">
          <mxGeometry relative="1" as="geometry" />
        </mxCell>
        <mxCell id="VyePYwVxATAiOt2KT0fE-38" value="r" style="edgeLabel;html=1;align=center;verticalAlign=middle;resizable=0;points=[];fontSize=15;" vertex="1" connectable="0" parent="VyePYwVxATAiOt2KT0fE-26">
          <mxGeometry x="0.0389" relative="1" as="geometry">
            <mxPoint x="-8" y="-1" as="offset" />
          </mxGeometry>
        </mxCell>
        <mxCell id="VyePYwVxATAiOt2KT0fE-27" style="edgeStyle=none;rounded=0;orthogonalLoop=1;jettySize=auto;html=1;exitX=1;exitY=1;exitDx=0;exitDy=0;endArrow=none;endFill=0;" edge="1" parent="1" source="VyePYwVxATAiOt2KT0fE-4" target="VyePYwVxATAiOt2KT0fE-8">
          <mxGeometry relative="1" as="geometry" />
        </mxCell>
        <mxCell id="VyePYwVxATAiOt2KT0fE-39" value="t" style="edgeLabel;html=1;align=center;verticalAlign=middle;resizable=0;points=[];fontSize=15;" vertex="1" connectable="0" parent="VyePYwVxATAiOt2KT0fE-27">
          <mxGeometry x="-0.0441" y="-2" relative="1" as="geometry">
            <mxPoint x="11" y="-3" as="offset" />
          </mxGeometry>
        </mxCell>
        <mxCell id="VyePYwVxATAiOt2KT0fE-4" value="" style="ellipse;whiteSpace=wrap;html=1;aspect=fixed;" vertex="1" parent="1">
          <mxGeometry x="231" y="319" width="30" height="30" as="geometry" />
        </mxCell>
        <mxCell id="VyePYwVxATAiOt2KT0fE-22" style="edgeStyle=none;rounded=0;orthogonalLoop=1;jettySize=auto;html=1;exitX=0.714;exitY=0.907;exitDx=0;exitDy=0;endArrow=none;endFill=0;exitPerimeter=0;" edge="1" parent="1" source="VyePYwVxATAiOt2KT0fE-5" target="VyePYwVxATAiOt2KT0fE-9">
          <mxGeometry relative="1" as="geometry" />
        </mxCell>
        <mxCell id="VyePYwVxATAiOt2KT0fE-34" value="s" style="edgeLabel;html=1;align=center;verticalAlign=middle;resizable=0;points=[];fontSize=15;" vertex="1" connectable="0" parent="VyePYwVxATAiOt2KT0fE-22">
          <mxGeometry x="0.0042" y="1" relative="1" as="geometry">
            <mxPoint x="7" y="-6" as="offset" />
          </mxGeometry>
        </mxCell>
        <mxCell id="VyePYwVxATAiOt2KT0fE-5" value="" style="ellipse;whiteSpace=wrap;html=1;aspect=fixed;" vertex="1" parent="1">
          <mxGeometry x="300" y="319" width="30" height="30" as="geometry" />
        </mxCell>
        <mxCell id="VyePYwVxATAiOt2KT0fE-19" style="edgeStyle=none;rounded=0;orthogonalLoop=1;jettySize=auto;html=1;exitX=0.697;exitY=0.953;exitDx=0;exitDy=0;entryX=0;entryY=0;entryDx=0;entryDy=0;endArrow=none;endFill=0;exitPerimeter=0;" edge="1" parent="1" source="VyePYwVxATAiOt2KT0fE-6" target="VyePYwVxATAiOt2KT0fE-10">
          <mxGeometry relative="1" as="geometry" />
        </mxCell>
        <mxCell id="VyePYwVxATAiOt2KT0fE-32" value="i" style="edgeLabel;html=1;align=center;verticalAlign=middle;resizable=0;points=[];fontSize=15;" vertex="1" connectable="0" parent="VyePYwVxATAiOt2KT0fE-19">
          <mxGeometry x="0.1331" y="-3" relative="1" as="geometry">
            <mxPoint x="8" y="-8" as="offset" />
          </mxGeometry>
        </mxCell>
        <mxCell id="VyePYwVxATAiOt2KT0fE-6" value="" style="ellipse;whiteSpace=wrap;html=1;aspect=fixed;" vertex="1" parent="1">
          <mxGeometry x="375" y="319" width="30" height="30" as="geometry" />
        </mxCell>
        <mxCell id="VyePYwVxATAiOt2KT0fE-21" style="edgeStyle=none;rounded=0;orthogonalLoop=1;jettySize=auto;html=1;exitX=0.5;exitY=1;exitDx=0;exitDy=0;entryX=0.5;entryY=0;entryDx=0;entryDy=0;endArrow=none;endFill=0;" edge="1" parent="1" source="VyePYwVxATAiOt2KT0fE-8" target="VyePYwVxATAiOt2KT0fE-13">
          <mxGeometry relative="1" as="geometry" />
        </mxCell>
        <mxCell id="VyePYwVxATAiOt2KT0fE-40" value="e" style="edgeLabel;html=1;align=center;verticalAlign=middle;resizable=0;points=[];fontSize=15;" vertex="1" connectable="0" parent="VyePYwVxATAiOt2KT0fE-21">
          <mxGeometry x="-0.0399" relative="1" as="geometry">
            <mxPoint x="17" y="1" as="offset" />
          </mxGeometry>
        </mxCell>
        <mxCell id="VyePYwVxATAiOt2KT0fE-8" value="" style="ellipse;whiteSpace=wrap;html=1;aspect=fixed;fillColor=#dae8fc;strokeColor=#6c8ebf;" vertex="1" parent="1">
          <mxGeometry x="270" y="386" width="30" height="30" as="geometry" />
        </mxCell>
        <mxCell id="VyePYwVxATAiOt2KT0fE-9" value="" style="ellipse;whiteSpace=wrap;html=1;aspect=fixed;fillColor=#dae8fc;strokeColor=#6c8ebf;" vertex="1" parent="1">
          <mxGeometry x="339" y="386" width="30" height="30" as="geometry" />
        </mxCell>
        <mxCell id="VyePYwVxATAiOt2KT0fE-20" style="edgeStyle=none;rounded=0;orthogonalLoop=1;jettySize=auto;html=1;exitX=0.5;exitY=1;exitDx=0;exitDy=0;entryX=0.5;entryY=0;entryDx=0;entryDy=0;endArrow=none;endFill=0;" edge="1" parent="1" source="VyePYwVxATAiOt2KT0fE-10" target="VyePYwVxATAiOt2KT0fE-14">
          <mxGeometry relative="1" as="geometry" />
        </mxCell>
        <mxCell id="VyePYwVxATAiOt2KT0fE-33" value="n" style="edgeLabel;html=1;align=center;verticalAlign=middle;resizable=0;points=[];fontSize=15;" vertex="1" connectable="0" parent="VyePYwVxATAiOt2KT0fE-20">
          <mxGeometry x="-0.2167" y="3" relative="1" as="geometry">
            <mxPoint x="8" y="6" as="offset" />
          </mxGeometry>
        </mxCell>
        <mxCell id="VyePYwVxATAiOt2KT0fE-10" value="" style="ellipse;whiteSpace=wrap;html=1;aspect=fixed;" vertex="1" parent="1">
          <mxGeometry x="414" y="386" width="30" height="30" as="geometry" />
        </mxCell>
        <mxCell id="VyePYwVxATAiOt2KT0fE-11" value="" style="ellipse;whiteSpace=wrap;html=1;aspect=fixed;fillColor=#dae8fc;strokeColor=#6c8ebf;" vertex="1" parent="1">
          <mxGeometry x="223" y="386" width="30" height="30" as="geometry" />
        </mxCell>
        <mxCell id="VyePYwVxATAiOt2KT0fE-12" value="" style="ellipse;whiteSpace=wrap;html=1;aspect=fixed;fillColor=#dae8fc;strokeColor=#6c8ebf;" vertex="1" parent="1">
          <mxGeometry x="176" y="386" width="30" height="30" as="geometry" />
        </mxCell>
        <mxCell id="VyePYwVxATAiOt2KT0fE-13" value="" style="ellipse;whiteSpace=wrap;html=1;aspect=fixed;fillColor=#dae8fc;strokeColor=#6c8ebf;" vertex="1" parent="1">
          <mxGeometry x="253" y="457" width="30" height="30" as="geometry" />
        </mxCell>
        <mxCell id="VyePYwVxATAiOt2KT0fE-14" value="" style="ellipse;whiteSpace=wrap;html=1;aspect=fixed;fillColor=#dae8fc;strokeColor=#6c8ebf;" vertex="1" parent="1">
          <mxGeometry x="397" y="457" width="30" height="30" as="geometry" />
        </mxCell>
        <mxCell id="VyePYwVxATAiOt2KT0fE-51" style="rounded=0;orthogonalLoop=1;jettySize=auto;html=1;exitX=0;exitY=1;exitDx=0;exitDy=0;endArrow=none;endFill=0;" edge="1" parent="1" source="VyePYwVxATAiOt2KT0fE-53" target="VyePYwVxATAiOt2KT0fE-56">
          <mxGeometry relative="1" as="geometry" />
        </mxCell>
        <mxCell id="VyePYwVxATAiOt2KT0fE-52" value="c" style="edgeLabel;html=1;align=center;verticalAlign=middle;resizable=0;points=[];fontSize=15;" vertex="1" connectable="0" parent="VyePYwVxATAiOt2KT0fE-51">
          <mxGeometry x="-0.2101" relative="1" as="geometry">
            <mxPoint x="-11" y="-1" as="offset" />
          </mxGeometry>
        </mxCell>
        <mxCell id="VyePYwVxATAiOt2KT0fE-53" value="" style="ellipse;whiteSpace=wrap;html=1;aspect=fixed;" vertex="1" parent="1">
          <mxGeometry x="125" y="581" width="30" height="30" as="geometry" />
        </mxCell>
        <mxCell id="VyePYwVxATAiOt2KT0fE-54" style="edgeStyle=none;rounded=0;orthogonalLoop=1;jettySize=auto;html=1;exitX=0.263;exitY=1.034;exitDx=0;exitDy=0;entryX=0.666;entryY=0.086;entryDx=0;entryDy=0;endArrow=none;endFill=0;exitPerimeter=0;entryPerimeter=0;" edge="1" parent="1" source="VyePYwVxATAiOt2KT0fE-56" target="VyePYwVxATAiOt2KT0fE-59">
          <mxGeometry relative="1" as="geometry" />
        </mxCell>
        <mxCell id="VyePYwVxATAiOt2KT0fE-55" value="a" style="edgeLabel;html=1;align=center;verticalAlign=middle;resizable=0;points=[];fontSize=15;" vertex="1" connectable="0" parent="VyePYwVxATAiOt2KT0fE-54">
          <mxGeometry x="-0.0523" relative="1" as="geometry">
            <mxPoint x="-10" y="-6" as="offset" />
          </mxGeometry>
        </mxCell>
        <mxCell id="VyePYwVxATAiOt2KT0fE-56" value="" style="ellipse;whiteSpace=wrap;html=1;aspect=fixed;" vertex="1" parent="1">
          <mxGeometry x="89" y="646" width="30" height="30" as="geometry" />
        </mxCell>
        <mxCell id="VyePYwVxATAiOt2KT0fE-57" style="edgeStyle=none;rounded=0;orthogonalLoop=1;jettySize=auto;html=1;exitX=0;exitY=1;exitDx=0;exitDy=0;entryX=0.778;entryY=0.014;entryDx=0;entryDy=0;endArrow=none;endFill=0;entryPerimeter=0;" edge="1" parent="1" source="VyePYwVxATAiOt2KT0fE-59" target="VyePYwVxATAiOt2KT0fE-60">
          <mxGeometry relative="1" as="geometry" />
        </mxCell>
        <mxCell id="VyePYwVxATAiOt2KT0fE-58" value="b" style="edgeLabel;html=1;align=center;verticalAlign=middle;resizable=0;points=[];fontSize=15;" vertex="1" connectable="0" parent="VyePYwVxATAiOt2KT0fE-57">
          <mxGeometry x="-0.1034" y="-2" relative="1" as="geometry">
            <mxPoint x="-8" y="-9" as="offset" />
          </mxGeometry>
        </mxCell>
        <mxCell id="VyePYwVxATAiOt2KT0fE-59" value="" style="ellipse;whiteSpace=wrap;html=1;aspect=fixed;" vertex="1" parent="1">
          <mxGeometry x="59" y="711" width="30" height="30" as="geometry" />
        </mxCell>
        <mxCell id="VyePYwVxATAiOt2KT0fE-60" value="" style="ellipse;whiteSpace=wrap;html=1;aspect=fixed;fillColor=#dae8fc;strokeColor=#6c8ebf;" vertex="1" parent="1">
          <mxGeometry x="17" y="778" width="30" height="30" as="geometry" />
        </mxCell>
        <mxCell id="VyePYwVxATAiOt2KT0fE-61" style="rounded=0;orthogonalLoop=1;jettySize=auto;html=1;exitX=0;exitY=1;exitDx=0;exitDy=0;endArrow=none;endFill=0;" edge="1" parent="1" source="VyePYwVxATAiOt2KT0fE-63" target="VyePYwVxATAiOt2KT0fE-66">
          <mxGeometry relative="1" as="geometry" />
        </mxCell>
        <mxCell id="VyePYwVxATAiOt2KT0fE-62" value="c" style="edgeLabel;html=1;align=center;verticalAlign=middle;resizable=0;points=[];fontSize=15;" vertex="1" connectable="0" parent="VyePYwVxATAiOt2KT0fE-61">
          <mxGeometry x="-0.2101" relative="1" as="geometry">
            <mxPoint x="-11" y="-1" as="offset" />
          </mxGeometry>
        </mxCell>
        <mxCell id="VyePYwVxATAiOt2KT0fE-63" value="" style="ellipse;whiteSpace=wrap;html=1;aspect=fixed;" vertex="1" parent="1">
          <mxGeometry x="278" y="581" width="30" height="30" as="geometry" />
        </mxCell>
        <mxCell id="VyePYwVxATAiOt2KT0fE-64" style="edgeStyle=none;rounded=0;orthogonalLoop=1;jettySize=auto;html=1;exitX=0.263;exitY=1.034;exitDx=0;exitDy=0;entryX=0.666;entryY=0.086;entryDx=0;entryDy=0;endArrow=none;endFill=0;exitPerimeter=0;entryPerimeter=0;" edge="1" parent="1" source="VyePYwVxATAiOt2KT0fE-66" target="VyePYwVxATAiOt2KT0fE-69">
          <mxGeometry relative="1" as="geometry" />
        </mxCell>
        <mxCell id="VyePYwVxATAiOt2KT0fE-65" value="a" style="edgeLabel;html=1;align=center;verticalAlign=middle;resizable=0;points=[];fontSize=15;" vertex="1" connectable="0" parent="VyePYwVxATAiOt2KT0fE-64">
          <mxGeometry x="-0.0523" relative="1" as="geometry">
            <mxPoint x="-10" y="-6" as="offset" />
          </mxGeometry>
        </mxCell>
        <mxCell id="VyePYwVxATAiOt2KT0fE-66" value="" style="ellipse;whiteSpace=wrap;html=1;aspect=fixed;" vertex="1" parent="1">
          <mxGeometry x="242" y="646" width="30" height="30" as="geometry" />
        </mxCell>
        <mxCell id="VyePYwVxATAiOt2KT0fE-67" style="edgeStyle=none;rounded=0;orthogonalLoop=1;jettySize=auto;html=1;exitX=0;exitY=1;exitDx=0;exitDy=0;entryX=0.778;entryY=0.014;entryDx=0;entryDy=0;endArrow=none;endFill=0;entryPerimeter=0;" edge="1" parent="1" source="VyePYwVxATAiOt2KT0fE-69" target="VyePYwVxATAiOt2KT0fE-70">
          <mxGeometry relative="1" as="geometry" />
        </mxCell>
        <mxCell id="VyePYwVxATAiOt2KT0fE-68" value="b" style="edgeLabel;html=1;align=center;verticalAlign=middle;resizable=0;points=[];fontSize=15;" vertex="1" connectable="0" parent="VyePYwVxATAiOt2KT0fE-67">
          <mxGeometry x="-0.1034" y="-2" relative="1" as="geometry">
            <mxPoint x="-8" y="-9" as="offset" />
          </mxGeometry>
        </mxCell>
        <mxCell id="VyePYwVxATAiOt2KT0fE-69" value="" style="ellipse;whiteSpace=wrap;html=1;aspect=fixed;" vertex="1" parent="1">
          <mxGeometry x="212" y="711" width="30" height="30" as="geometry" />
        </mxCell>
        <mxCell id="VyePYwVxATAiOt2KT0fE-70" value="" style="ellipse;whiteSpace=wrap;html=1;aspect=fixed;fillColor=#dae8fc;strokeColor=#6c8ebf;" vertex="1" parent="1">
          <mxGeometry x="170" y="778" width="30" height="30" as="geometry" />
        </mxCell>
        <mxCell id="VyePYwVxATAiOt2KT0fE-71" style="edgeStyle=none;rounded=0;orthogonalLoop=1;jettySize=auto;html=1;endArrow=none;endFill=0;exitX=1;exitY=1;exitDx=0;exitDy=0;" edge="1" parent="1" target="VyePYwVxATAiOt2KT0fE-75" source="VyePYwVxATAiOt2KT0fE-66">
          <mxGeometry relative="1" as="geometry">
            <mxPoint x="269" y="667" as="sourcePoint" />
          </mxGeometry>
        </mxCell>
        <mxCell id="VyePYwVxATAiOt2KT0fE-72" value="o" style="edgeLabel;html=1;align=center;verticalAlign=middle;resizable=0;points=[];fontSize=15;" vertex="1" connectable="0" parent="VyePYwVxATAiOt2KT0fE-71">
          <mxGeometry x="-0.0561" relative="1" as="geometry">
            <mxPoint x="10" y="-6" as="offset" />
          </mxGeometry>
        </mxCell>
        <mxCell id="VyePYwVxATAiOt2KT0fE-73" style="edgeStyle=none;rounded=0;orthogonalLoop=1;jettySize=auto;html=1;exitX=0.714;exitY=0.907;exitDx=0;exitDy=0;endArrow=none;endFill=0;exitPerimeter=0;" edge="1" parent="1" source="VyePYwVxATAiOt2KT0fE-75" target="VyePYwVxATAiOt2KT0fE-76">
          <mxGeometry relative="1" as="geometry" />
        </mxCell>
        <mxCell id="VyePYwVxATAiOt2KT0fE-74" value="s" style="edgeLabel;html=1;align=center;verticalAlign=middle;resizable=0;points=[];fontSize=15;" vertex="1" connectable="0" parent="VyePYwVxATAiOt2KT0fE-73">
          <mxGeometry x="0.0042" y="1" relative="1" as="geometry">
            <mxPoint x="7" y="-6" as="offset" />
          </mxGeometry>
        </mxCell>
        <mxCell id="VyePYwVxATAiOt2KT0fE-75" value="" style="ellipse;whiteSpace=wrap;html=1;aspect=fixed;" vertex="1" parent="1">
          <mxGeometry x="286.22" y="711" width="30" height="30" as="geometry" />
        </mxCell>
        <mxCell id="VyePYwVxATAiOt2KT0fE-76" value="" style="ellipse;whiteSpace=wrap;html=1;aspect=fixed;fillColor=#dae8fc;strokeColor=#6c8ebf;" vertex="1" parent="1">
          <mxGeometry x="325.22" y="778" width="30" height="30" as="geometry" />
        </mxCell>
        <mxCell id="VyePYwVxATAiOt2KT0fE-77" style="rounded=0;orthogonalLoop=1;jettySize=auto;html=1;exitX=0;exitY=1;exitDx=0;exitDy=0;endArrow=none;endFill=0;" edge="1" parent="1" source="VyePYwVxATAiOt2KT0fE-79" target="VyePYwVxATAiOt2KT0fE-82">
          <mxGeometry relative="1" as="geometry" />
        </mxCell>
        <mxCell id="VyePYwVxATAiOt2KT0fE-78" value="c" style="edgeLabel;html=1;align=center;verticalAlign=middle;resizable=0;points=[];fontSize=15;" vertex="1" connectable="0" parent="VyePYwVxATAiOt2KT0fE-77">
          <mxGeometry x="-0.2101" relative="1" as="geometry">
            <mxPoint x="-11" y="-1" as="offset" />
          </mxGeometry>
        </mxCell>
        <mxCell id="VyePYwVxATAiOt2KT0fE-79" value="" style="ellipse;whiteSpace=wrap;html=1;aspect=fixed;" vertex="1" parent="1">
          <mxGeometry x="546" y="582" width="30" height="30" as="geometry" />
        </mxCell>
        <mxCell id="VyePYwVxATAiOt2KT0fE-80" style="edgeStyle=none;rounded=0;orthogonalLoop=1;jettySize=auto;html=1;exitX=0.263;exitY=1.034;exitDx=0;exitDy=0;entryX=0.666;entryY=0.086;entryDx=0;entryDy=0;endArrow=none;endFill=0;exitPerimeter=0;entryPerimeter=0;" edge="1" parent="1" source="VyePYwVxATAiOt2KT0fE-82" target="VyePYwVxATAiOt2KT0fE-85">
          <mxGeometry relative="1" as="geometry" />
        </mxCell>
        <mxCell id="VyePYwVxATAiOt2KT0fE-81" value="a" style="edgeLabel;html=1;align=center;verticalAlign=middle;resizable=0;points=[];fontSize=15;" vertex="1" connectable="0" parent="VyePYwVxATAiOt2KT0fE-80">
          <mxGeometry x="-0.0523" relative="1" as="geometry">
            <mxPoint x="-10" y="-6" as="offset" />
          </mxGeometry>
        </mxCell>
        <mxCell id="VyePYwVxATAiOt2KT0fE-82" value="" style="ellipse;whiteSpace=wrap;html=1;aspect=fixed;" vertex="1" parent="1">
          <mxGeometry x="510" y="647" width="30" height="30" as="geometry" />
        </mxCell>
        <mxCell id="VyePYwVxATAiOt2KT0fE-83" style="edgeStyle=none;rounded=0;orthogonalLoop=1;jettySize=auto;html=1;exitX=0;exitY=1;exitDx=0;exitDy=0;entryX=0.778;entryY=0.014;entryDx=0;entryDy=0;endArrow=none;endFill=0;entryPerimeter=0;" edge="1" parent="1" source="VyePYwVxATAiOt2KT0fE-85" target="VyePYwVxATAiOt2KT0fE-86">
          <mxGeometry relative="1" as="geometry" />
        </mxCell>
        <mxCell id="VyePYwVxATAiOt2KT0fE-84" value="b" style="edgeLabel;html=1;align=center;verticalAlign=middle;resizable=0;points=[];fontSize=15;" vertex="1" connectable="0" parent="VyePYwVxATAiOt2KT0fE-83">
          <mxGeometry x="-0.1034" y="-2" relative="1" as="geometry">
            <mxPoint x="-8" y="-9" as="offset" />
          </mxGeometry>
        </mxCell>
        <mxCell id="VyePYwVxATAiOt2KT0fE-85" value="" style="ellipse;whiteSpace=wrap;html=1;aspect=fixed;" vertex="1" parent="1">
          <mxGeometry x="480" y="712" width="30" height="30" as="geometry" />
        </mxCell>
        <mxCell id="VyePYwVxATAiOt2KT0fE-86" value="" style="ellipse;whiteSpace=wrap;html=1;aspect=fixed;fillColor=#dae8fc;strokeColor=#6c8ebf;" vertex="1" parent="1">
          <mxGeometry x="438" y="779" width="30" height="30" as="geometry" />
        </mxCell>
        <mxCell id="VyePYwVxATAiOt2KT0fE-87" style="edgeStyle=none;rounded=0;orthogonalLoop=1;jettySize=auto;html=1;endArrow=none;endFill=0;exitX=1;exitY=1;exitDx=0;exitDy=0;" edge="1" parent="1" source="VyePYwVxATAiOt2KT0fE-82" target="VyePYwVxATAiOt2KT0fE-91">
          <mxGeometry relative="1" as="geometry">
            <mxPoint x="537" y="668" as="sourcePoint" />
          </mxGeometry>
        </mxCell>
        <mxCell id="VyePYwVxATAiOt2KT0fE-88" value="o" style="edgeLabel;html=1;align=center;verticalAlign=middle;resizable=0;points=[];fontSize=15;" vertex="1" connectable="0" parent="VyePYwVxATAiOt2KT0fE-87">
          <mxGeometry x="-0.0561" relative="1" as="geometry">
            <mxPoint x="10" y="-6" as="offset" />
          </mxGeometry>
        </mxCell>
        <mxCell id="VyePYwVxATAiOt2KT0fE-89" style="edgeStyle=none;rounded=0;orthogonalLoop=1;jettySize=auto;html=1;exitX=0.714;exitY=0.907;exitDx=0;exitDy=0;endArrow=none;endFill=0;exitPerimeter=0;" edge="1" parent="1" source="VyePYwVxATAiOt2KT0fE-91" target="VyePYwVxATAiOt2KT0fE-92">
          <mxGeometry relative="1" as="geometry" />
        </mxCell>
        <mxCell id="VyePYwVxATAiOt2KT0fE-90" value="s" style="edgeLabel;html=1;align=center;verticalAlign=middle;resizable=0;points=[];fontSize=15;" vertex="1" connectable="0" parent="VyePYwVxATAiOt2KT0fE-89">
          <mxGeometry x="0.0042" y="1" relative="1" as="geometry">
            <mxPoint x="7" y="-6" as="offset" />
          </mxGeometry>
        </mxCell>
        <mxCell id="VyePYwVxATAiOt2KT0fE-91" value="" style="ellipse;whiteSpace=wrap;html=1;aspect=fixed;" vertex="1" parent="1">
          <mxGeometry x="554.22" y="712" width="30" height="30" as="geometry" />
        </mxCell>
        <mxCell id="VyePYwVxATAiOt2KT0fE-92" value="" style="ellipse;whiteSpace=wrap;html=1;aspect=fixed;fillColor=#dae8fc;strokeColor=#6c8ebf;" vertex="1" parent="1">
          <mxGeometry x="593.22" y="779" width="30" height="30" as="geometry" />
        </mxCell>
        <mxCell id="VyePYwVxATAiOt2KT0fE-93" style="edgeStyle=none;rounded=0;orthogonalLoop=1;jettySize=auto;html=1;exitX=0.5;exitY=1;exitDx=0;exitDy=0;entryX=0.5;entryY=0;entryDx=0;entryDy=0;endArrow=none;endFill=0;" edge="1" parent="1" target="VyePYwVxATAiOt2KT0fE-98" source="VyePYwVxATAiOt2KT0fE-85">
          <mxGeometry relative="1" as="geometry">
            <mxPoint x="503" y="742" as="sourcePoint" />
          </mxGeometry>
        </mxCell>
        <mxCell id="VyePYwVxATAiOt2KT0fE-94" value="r" style="edgeLabel;html=1;align=center;verticalAlign=middle;resizable=0;points=[];fontSize=15;" vertex="1" connectable="0" parent="VyePYwVxATAiOt2KT0fE-93">
          <mxGeometry x="0.0389" relative="1" as="geometry">
            <mxPoint x="-8" y="-1" as="offset" />
          </mxGeometry>
        </mxCell>
        <mxCell id="VyePYwVxATAiOt2KT0fE-95" style="edgeStyle=none;rounded=0;orthogonalLoop=1;jettySize=auto;html=1;endArrow=none;endFill=0;exitX=1;exitY=1;exitDx=0;exitDy=0;" edge="1" parent="1" target="VyePYwVxATAiOt2KT0fE-97" source="VyePYwVxATAiOt2KT0fE-85">
          <mxGeometry relative="1" as="geometry">
            <mxPoint x="507" y="732" as="sourcePoint" />
          </mxGeometry>
        </mxCell>
        <mxCell id="VyePYwVxATAiOt2KT0fE-96" value="t" style="edgeLabel;html=1;align=center;verticalAlign=middle;resizable=0;points=[];fontSize=15;" vertex="1" connectable="0" parent="VyePYwVxATAiOt2KT0fE-95">
          <mxGeometry x="-0.0441" y="-2" relative="1" as="geometry">
            <mxPoint x="11" y="-3" as="offset" />
          </mxGeometry>
        </mxCell>
        <mxCell id="VyePYwVxATAiOt2KT0fE-97" value="" style="ellipse;whiteSpace=wrap;html=1;aspect=fixed;fillColor=#dae8fc;strokeColor=#6c8ebf;" vertex="1" parent="1">
          <mxGeometry x="527" y="779" width="30" height="30" as="geometry" />
        </mxCell>
        <mxCell id="VyePYwVxATAiOt2KT0fE-98" value="" style="ellipse;whiteSpace=wrap;html=1;aspect=fixed;fillColor=#dae8fc;strokeColor=#6c8ebf;" vertex="1" parent="1">
          <mxGeometry x="480" y="779" width="30" height="30" as="geometry" />
        </mxCell>
        <mxCell id="VyePYwVxATAiOt2KT0fE-135" style="rounded=0;orthogonalLoop=1;jettySize=auto;html=1;exitX=0;exitY=1;exitDx=0;exitDy=0;endArrow=none;endFill=0;" edge="1" parent="1" source="VyePYwVxATAiOt2KT0fE-139" target="VyePYwVxATAiOt2KT0fE-144">
          <mxGeometry relative="1" as="geometry" />
        </mxCell>
        <mxCell id="VyePYwVxATAiOt2KT0fE-136" value="c" style="edgeLabel;html=1;align=center;verticalAlign=middle;resizable=0;points=[];fontSize=15;" vertex="1" connectable="0" parent="VyePYwVxATAiOt2KT0fE-135">
          <mxGeometry x="-0.2101" relative="1" as="geometry">
            <mxPoint x="-11" y="-1" as="offset" />
          </mxGeometry>
        </mxCell>
        <mxCell id="VyePYwVxATAiOt2KT0fE-137" style="edgeStyle=none;rounded=0;orthogonalLoop=1;jettySize=auto;html=1;exitX=1;exitY=1;exitDx=0;exitDy=0;endArrow=none;endFill=0;" edge="1" parent="1" source="VyePYwVxATAiOt2KT0fE-139" target="VyePYwVxATAiOt2KT0fE-147">
          <mxGeometry relative="1" as="geometry" />
        </mxCell>
        <mxCell id="VyePYwVxATAiOt2KT0fE-138" value="r" style="edgeLabel;html=1;align=center;verticalAlign=middle;resizable=0;points=[];fontSize=15;" vertex="1" connectable="0" parent="VyePYwVxATAiOt2KT0fE-137">
          <mxGeometry x="0.0628" y="1" relative="1" as="geometry">
            <mxPoint x="8" y="-5" as="offset" />
          </mxGeometry>
        </mxCell>
        <mxCell id="VyePYwVxATAiOt2KT0fE-139" value="" style="ellipse;whiteSpace=wrap;html=1;aspect=fixed;" vertex="1" parent="1">
          <mxGeometry x="787" y="582" width="30" height="30" as="geometry" />
        </mxCell>
        <mxCell id="VyePYwVxATAiOt2KT0fE-140" style="edgeStyle=none;rounded=0;orthogonalLoop=1;jettySize=auto;html=1;exitX=0.726;exitY=0.9;exitDx=0;exitDy=0;endArrow=none;endFill=0;exitPerimeter=0;" edge="1" parent="1" source="VyePYwVxATAiOt2KT0fE-144" target="VyePYwVxATAiOt2KT0fE-157">
          <mxGeometry relative="1" as="geometry" />
        </mxCell>
        <mxCell id="VyePYwVxATAiOt2KT0fE-141" value="o" style="edgeLabel;html=1;align=center;verticalAlign=middle;resizable=0;points=[];fontSize=15;" vertex="1" connectable="0" parent="VyePYwVxATAiOt2KT0fE-140">
          <mxGeometry x="-0.0561" relative="1" as="geometry">
            <mxPoint x="10" y="-6" as="offset" />
          </mxGeometry>
        </mxCell>
        <mxCell id="VyePYwVxATAiOt2KT0fE-142" style="edgeStyle=none;rounded=0;orthogonalLoop=1;jettySize=auto;html=1;exitX=0;exitY=1;exitDx=0;exitDy=0;entryX=0.5;entryY=0;entryDx=0;entryDy=0;endArrow=none;endFill=0;" edge="1" parent="1" source="VyePYwVxATAiOt2KT0fE-144" target="VyePYwVxATAiOt2KT0fE-154">
          <mxGeometry relative="1" as="geometry" />
        </mxCell>
        <mxCell id="VyePYwVxATAiOt2KT0fE-143" value="a" style="edgeLabel;html=1;align=center;verticalAlign=middle;resizable=0;points=[];fontSize=15;" vertex="1" connectable="0" parent="VyePYwVxATAiOt2KT0fE-142">
          <mxGeometry x="-0.0523" relative="1" as="geometry">
            <mxPoint x="-10" y="-6" as="offset" />
          </mxGeometry>
        </mxCell>
        <mxCell id="VyePYwVxATAiOt2KT0fE-144" value="" style="ellipse;whiteSpace=wrap;html=1;aspect=fixed;" vertex="1" parent="1">
          <mxGeometry x="748" y="645" width="30" height="30" as="geometry" />
        </mxCell>
        <mxCell id="VyePYwVxATAiOt2KT0fE-145" style="edgeStyle=none;rounded=0;orthogonalLoop=1;jettySize=auto;html=1;exitX=0.724;exitY=0.946;exitDx=0;exitDy=0;endArrow=none;endFill=0;exitPerimeter=0;" edge="1" parent="1" source="VyePYwVxATAiOt2KT0fE-147">
          <mxGeometry relative="1" as="geometry">
            <mxPoint x="871" y="717" as="targetPoint" />
          </mxGeometry>
        </mxCell>
        <mxCell id="VyePYwVxATAiOt2KT0fE-146" value="a" style="edgeLabel;html=1;align=center;verticalAlign=middle;resizable=0;points=[];fontSize=15;" vertex="1" connectable="0" parent="VyePYwVxATAiOt2KT0fE-145">
          <mxGeometry x="0.024" y="1" relative="1" as="geometry">
            <mxPoint x="8" y="-7" as="offset" />
          </mxGeometry>
        </mxCell>
        <mxCell id="VyePYwVxATAiOt2KT0fE-147" value="" style="ellipse;whiteSpace=wrap;html=1;aspect=fixed;" vertex="1" parent="1">
          <mxGeometry x="826" y="645" width="30" height="30" as="geometry" />
        </mxCell>
        <mxCell id="VyePYwVxATAiOt2KT0fE-148" style="edgeStyle=none;rounded=0;orthogonalLoop=1;jettySize=auto;html=1;exitX=0;exitY=1;exitDx=0;exitDy=0;entryX=0.5;entryY=0;entryDx=0;entryDy=0;endArrow=none;endFill=0;" edge="1" parent="1" source="VyePYwVxATAiOt2KT0fE-154" target="VyePYwVxATAiOt2KT0fE-169">
          <mxGeometry relative="1" as="geometry" />
        </mxCell>
        <mxCell id="VyePYwVxATAiOt2KT0fE-149" value="b" style="edgeLabel;html=1;align=center;verticalAlign=middle;resizable=0;points=[];fontSize=15;" vertex="1" connectable="0" parent="VyePYwVxATAiOt2KT0fE-148">
          <mxGeometry x="-0.1034" y="-2" relative="1" as="geometry">
            <mxPoint x="-8" y="-9" as="offset" />
          </mxGeometry>
        </mxCell>
        <mxCell id="VyePYwVxATAiOt2KT0fE-150" style="edgeStyle=none;rounded=0;orthogonalLoop=1;jettySize=auto;html=1;exitX=0.5;exitY=1;exitDx=0;exitDy=0;entryX=0.5;entryY=0;entryDx=0;entryDy=0;endArrow=none;endFill=0;" edge="1" parent="1" source="VyePYwVxATAiOt2KT0fE-154" target="VyePYwVxATAiOt2KT0fE-168">
          <mxGeometry relative="1" as="geometry" />
        </mxCell>
        <mxCell id="VyePYwVxATAiOt2KT0fE-151" value="r" style="edgeLabel;html=1;align=center;verticalAlign=middle;resizable=0;points=[];fontSize=15;" vertex="1" connectable="0" parent="VyePYwVxATAiOt2KT0fE-150">
          <mxGeometry x="0.0389" relative="1" as="geometry">
            <mxPoint x="-8" y="-1" as="offset" />
          </mxGeometry>
        </mxCell>
        <mxCell id="VyePYwVxATAiOt2KT0fE-152" style="edgeStyle=none;rounded=0;orthogonalLoop=1;jettySize=auto;html=1;exitX=1;exitY=1;exitDx=0;exitDy=0;endArrow=none;endFill=0;" edge="1" parent="1" source="VyePYwVxATAiOt2KT0fE-154" target="VyePYwVxATAiOt2KT0fE-163">
          <mxGeometry relative="1" as="geometry" />
        </mxCell>
        <mxCell id="VyePYwVxATAiOt2KT0fE-153" value="t" style="edgeLabel;html=1;align=center;verticalAlign=middle;resizable=0;points=[];fontSize=15;" vertex="1" connectable="0" parent="VyePYwVxATAiOt2KT0fE-152">
          <mxGeometry x="-0.0441" y="-2" relative="1" as="geometry">
            <mxPoint x="11" y="-3" as="offset" />
          </mxGeometry>
        </mxCell>
        <mxCell id="VyePYwVxATAiOt2KT0fE-154" value="" style="ellipse;whiteSpace=wrap;html=1;aspect=fixed;" vertex="1" parent="1">
          <mxGeometry x="718" y="711" width="30" height="30" as="geometry" />
        </mxCell>
        <mxCell id="VyePYwVxATAiOt2KT0fE-155" style="edgeStyle=none;rounded=0;orthogonalLoop=1;jettySize=auto;html=1;exitX=0.714;exitY=0.907;exitDx=0;exitDy=0;endArrow=none;endFill=0;exitPerimeter=0;" edge="1" parent="1" source="VyePYwVxATAiOt2KT0fE-157" target="VyePYwVxATAiOt2KT0fE-164">
          <mxGeometry relative="1" as="geometry" />
        </mxCell>
        <mxCell id="VyePYwVxATAiOt2KT0fE-156" value="s" style="edgeLabel;html=1;align=center;verticalAlign=middle;resizable=0;points=[];fontSize=15;" vertex="1" connectable="0" parent="VyePYwVxATAiOt2KT0fE-155">
          <mxGeometry x="0.0042" y="1" relative="1" as="geometry">
            <mxPoint x="7" y="-6" as="offset" />
          </mxGeometry>
        </mxCell>
        <mxCell id="VyePYwVxATAiOt2KT0fE-157" value="" style="ellipse;whiteSpace=wrap;html=1;aspect=fixed;" vertex="1" parent="1">
          <mxGeometry x="787" y="711" width="30" height="30" as="geometry" />
        </mxCell>
        <mxCell id="VyePYwVxATAiOt2KT0fE-158" style="edgeStyle=none;rounded=0;orthogonalLoop=1;jettySize=auto;html=1;exitX=0.697;exitY=0.953;exitDx=0;exitDy=0;entryX=0;entryY=0;entryDx=0;entryDy=0;endArrow=none;endFill=0;exitPerimeter=0;" edge="1" parent="1" source="VyePYwVxATAiOt2KT0fE-160" target="VyePYwVxATAiOt2KT0fE-167">
          <mxGeometry relative="1" as="geometry" />
        </mxCell>
        <mxCell id="VyePYwVxATAiOt2KT0fE-159" value="i" style="edgeLabel;html=1;align=center;verticalAlign=middle;resizable=0;points=[];fontSize=15;" vertex="1" connectable="0" parent="VyePYwVxATAiOt2KT0fE-158">
          <mxGeometry x="0.1331" y="-3" relative="1" as="geometry">
            <mxPoint x="8" y="-8" as="offset" />
          </mxGeometry>
        </mxCell>
        <mxCell id="VyePYwVxATAiOt2KT0fE-160" value="" style="ellipse;whiteSpace=wrap;html=1;aspect=fixed;" vertex="1" parent="1">
          <mxGeometry x="862" y="711" width="30" height="30" as="geometry" />
        </mxCell>
        <mxCell id="VyePYwVxATAiOt2KT0fE-161" style="edgeStyle=none;rounded=0;orthogonalLoop=1;jettySize=auto;html=1;exitX=0.5;exitY=1;exitDx=0;exitDy=0;entryX=0.5;entryY=0;entryDx=0;entryDy=0;endArrow=none;endFill=0;" edge="1" parent="1" source="VyePYwVxATAiOt2KT0fE-163" target="VyePYwVxATAiOt2KT0fE-170">
          <mxGeometry relative="1" as="geometry" />
        </mxCell>
        <mxCell id="VyePYwVxATAiOt2KT0fE-162" value="e" style="edgeLabel;html=1;align=center;verticalAlign=middle;resizable=0;points=[];fontSize=15;" vertex="1" connectable="0" parent="VyePYwVxATAiOt2KT0fE-161">
          <mxGeometry x="-0.0399" relative="1" as="geometry">
            <mxPoint x="17" y="1" as="offset" />
          </mxGeometry>
        </mxCell>
        <mxCell id="VyePYwVxATAiOt2KT0fE-163" value="" style="ellipse;whiteSpace=wrap;html=1;aspect=fixed;fillColor=#dae8fc;strokeColor=#6c8ebf;" vertex="1" parent="1">
          <mxGeometry x="757" y="778" width="30" height="30" as="geometry" />
        </mxCell>
        <mxCell id="VyePYwVxATAiOt2KT0fE-164" value="" style="ellipse;whiteSpace=wrap;html=1;aspect=fixed;fillColor=#dae8fc;strokeColor=#6c8ebf;" vertex="1" parent="1">
          <mxGeometry x="826" y="778" width="30" height="30" as="geometry" />
        </mxCell>
        <mxCell id="VyePYwVxATAiOt2KT0fE-165" style="edgeStyle=none;rounded=0;orthogonalLoop=1;jettySize=auto;html=1;exitX=0.5;exitY=1;exitDx=0;exitDy=0;entryX=0.5;entryY=0;entryDx=0;entryDy=0;endArrow=none;endFill=0;" edge="1" parent="1" source="VyePYwVxATAiOt2KT0fE-167" target="VyePYwVxATAiOt2KT0fE-171">
          <mxGeometry relative="1" as="geometry" />
        </mxCell>
        <mxCell id="VyePYwVxATAiOt2KT0fE-166" value="n" style="edgeLabel;html=1;align=center;verticalAlign=middle;resizable=0;points=[];fontSize=15;" vertex="1" connectable="0" parent="VyePYwVxATAiOt2KT0fE-165">
          <mxGeometry x="-0.2167" y="3" relative="1" as="geometry">
            <mxPoint x="8" y="6" as="offset" />
          </mxGeometry>
        </mxCell>
        <mxCell id="VyePYwVxATAiOt2KT0fE-167" value="" style="ellipse;whiteSpace=wrap;html=1;aspect=fixed;" vertex="1" parent="1">
          <mxGeometry x="901" y="778" width="30" height="30" as="geometry" />
        </mxCell>
        <mxCell id="VyePYwVxATAiOt2KT0fE-168" value="" style="ellipse;whiteSpace=wrap;html=1;aspect=fixed;fillColor=#dae8fc;strokeColor=#6c8ebf;" vertex="1" parent="1">
          <mxGeometry x="710" y="778" width="30" height="30" as="geometry" />
        </mxCell>
        <mxCell id="VyePYwVxATAiOt2KT0fE-169" value="" style="ellipse;whiteSpace=wrap;html=1;aspect=fixed;fillColor=#dae8fc;strokeColor=#6c8ebf;" vertex="1" parent="1">
          <mxGeometry x="663" y="778" width="30" height="30" as="geometry" />
        </mxCell>
        <mxCell id="VyePYwVxATAiOt2KT0fE-170" value="" style="ellipse;whiteSpace=wrap;html=1;aspect=fixed;fillColor=#dae8fc;strokeColor=#6c8ebf;" vertex="1" parent="1">
          <mxGeometry x="740" y="849" width="30" height="30" as="geometry" />
        </mxCell>
        <mxCell id="VyePYwVxATAiOt2KT0fE-171" value="" style="ellipse;whiteSpace=wrap;html=1;aspect=fixed;fillColor=#dae8fc;strokeColor=#6c8ebf;" vertex="1" parent="1">
          <mxGeometry x="884" y="849" width="30" height="30" as="geometry" />
        </mxCell>
        <mxCell id="VyePYwVxATAiOt2KT0fE-172" value="在空的Trie 中插入 cab" style="text;html=1;strokeColor=none;fillColor=none;align=center;verticalAlign=middle;whiteSpace=wrap;rounded=0;fontSize=15;" vertex="1" parent="1">
          <mxGeometry x="28" y="874" width="97" height="41" as="geometry" />
        </mxCell>
        <mxCell id="VyePYwVxATAiOt2KT0fE-173" value="插入 cos&lt;span style=&quot;color: rgba(0 , 0 , 0 , 0) ; font-family: monospace ; font-size: 0px&quot;&gt;%3CmxGraphModel%3E%3Croot%3E%3CmxCell%20id%3D%220%22%2F%3E%3CmxCell%20id%3D%221%22%20parent%3D%220%22%2F%3E%3CmxCell%20id%3D%222%22%20value%3D%22%E5%9C%A8%E7%A9%BA%E7%9A%84Trie%20%E4%B8%AD%E6%8F%92%E5%85%A5%20cab%22%20style%3D%22text%3Bhtml%3D1%3BstrokeColor%3Dnone%3BfillColor%3Dnone%3Balign%3Dcenter%3BverticalAlign%3Dmiddle%3BwhiteSpace%3Dwrap%3Brounded%3D0%3BfontSize%3D15%3B%22%20vertex%3D%221%22%20parent%3D%221%22%3E%3CmxGeometry%20x%3D%2228%22%20y%3D%22866%22%20width%3D%2297%22%20height%3D%2241%22%20as%3D%22geometry%22%2F%3E%3C%2FmxCell%3E%3C%2Froot%3E%3C%2FmxGraphModel%3E&lt;/span&gt;" style="text;html=1;strokeColor=none;fillColor=none;align=center;verticalAlign=middle;whiteSpace=wrap;rounded=0;fontSize=15;" vertex="1" parent="1">
          <mxGeometry x="211" y="874" width="97" height="41" as="geometry" />
        </mxCell>
        <mxCell id="VyePYwVxATAiOt2KT0fE-174" value="插入 car与cat&lt;span style=&quot;color: rgba(0 , 0 , 0 , 0) ; font-family: monospace ; font-size: 0px&quot;&gt;%3CmxGraphModel%3E%3Croot%3E%3CmxCell%20id%3D%220%22%2F%3E%3CmxCell%20id%3D%221%22%20parent%3D%220%22%2F%3E%3CmxCell%20id%3D%222%22%20value%3D%22%E5%9C%A8%E7%A9%BA%E7%9A%84Trie%20%E4%B8%AD%E6%8F%92%E5%85%A5%20cab%22%20style%3D%22text%3Bhtml%3D1%3BstrokeColor%3Dnone%3BfillColor%3Dnone%3Balign%3Dcenter%3BverticalAlign%3Dmiddle%3BwhiteSpace%3Dwrap%3Brounded%3D0%3BfontSize%3D15%3B%22%20vertex%3D%221%22%20parent%3D%221%22%3E%3CmxGeometry%20x%3D%2228%22%20y%3D%22866%22%20width%3D%2297%22%20height%3D%2241%22%20as%3D%22geometry%22%2F%3E%3C%2FmxCell%3E%3C%2Froot%3E%3C%2FmxGraphModel%3E&lt;/span&gt;" style="text;html=1;strokeColor=none;fillColor=none;align=center;verticalAlign=middle;whiteSpace=wrap;rounded=0;fontSize=15;" vertex="1" parent="1">
          <mxGeometry x="476.5" y="874" width="97" height="41" as="geometry" />
        </mxCell>
        <mxCell id="VyePYwVxATAiOt2KT0fE-175" value="插入 cate与rain&lt;span style=&quot;color: rgba(0 , 0 , 0 , 0) ; font-family: monospace ; font-size: 0px&quot;&gt;%3CmxGraphModel%3E%3Croot%3E%3CmxCell%20id%3D%220%22%2F%3E%3CmxCell%20id%3D%221%22%20parent%3D%220%22%2F%3E%3CmxCell%20id%3D%222%22%20value%3D%22%E5%9C%A8%E7%A9%BA%E7%9A%84Trie%20%E4%B8%AD%E6%8F%92%E5%85%A5%20cab%22%20style%3D%22text%3Bhtml%3D1%3BstrokeColor%3Dnone%3BfillColor%3Dnone%3Balign%3Dcenter%3BverticalAlign%3Dmiddle%3BwhiteSpace%3Dwrap%3Brounded%3D0%3BfontSize%3D15%3B%22%20vertex%3D%221%22%20parent%3D%221%22%3E%3CmxGeometry%20x%3D%2228%22%20y%3D%22866%22%20width%3D%2297%22%20height%3D%2241%22%20as%3D%22geometry%22%2F%3E%3C%2FmxCell%3E%3C%2Froot%3E%3C%2FmxGraphModel&lt;/span&gt;" style="text;html=1;strokeColor=none;fillColor=none;align=center;verticalAlign=middle;whiteSpace=wrap;rounded=0;fontSize=15;" vertex="1" parent="1">
          <mxGeometry x="751" y="874" width="133" height="37" as="geometry" />
        </mxCell>
      </root>
    </mxGraphModel>
  </diagram>
</mxfile>
